<svg xmlns="http://www.w3.org/2000/svg" viewBox="0 0 120 120" width="120" height="120">
  <!-- App Icon — Gold background -->
  <rect x="0" y="0" width="120" height="120" rx="22" fill="#f1a92a"/>
  <!-- Roof -->
  <polygon points="60,18 92,42 28,42" fill="#0f172a"/>
  <!-- House body -->
  <rect x="34" y="42" width="52" height="42" rx="3" fill="#ffffff"/>
  <!-- Door -->
  <rect x="50" y="60" width="20" height="24" rx="2" fill="#0f172a"/>
  <circle cx="66" cy="73" r="2" fill="#f1a92a"/>
  <!-- Window left -->
  <rect x="37" y="50" width="12" height="9" rx="1" fill="#0f172a"/>
  <!-- Window right -->
  <rect x="71" y="50" width="12" height="9" rx="1" fill="#0f172a"/>
  <!-- Male guest -->
  <circle cx="43" cy="57" r="4" fill="#f1a92a"/>
  <!-- Female guest -->
  <circle cx="77" cy="57" r="4" fill="#f1a92a"/>
  <path d="M73 61 Q77 68 81 61" fill="#f1a92a"/>
  <!-- Fork tiny -->
  <line x1="85" y1="22" x2="85" y2="34" stroke="#0f172a" stroke-width="2" stroke-linecap="round"/>
  <line x1="82" y1="22" x2="82" y2="27" stroke="#0f172a" stroke-width="1.5" stroke-linecap="round"/>
  <line x1="88" y1="22" x2="88" y2="27" stroke="#0f172a" stroke-width="1.5" stroke-linecap="round"/>
  <!-- Spoon tiny -->
  <circle cx="95" cy="24" r="4" fill="none" stroke="#0f172a" stroke-width="1.5"/>
  <line x1="95" y1="28" x2="95" y2="34" stroke="#0f172a" stroke-width="2" stroke-linecap="round"/>
</svg>
